<mxfile host="app.diagrams.net" modified="2024-04-23T00:40:35.854Z" agent="Mozilla/5.0 (Windows NT 10.0; Win64; x64) AppleWebKit/537.36 (KHTML, like Gecko) Chrome/124.0.0.0 Safari/537.36 Edg/124.0.0.0" etag="cdLoyDweE5CqlvcIp6xw" version="24.2.8" type="google">
  <diagram name="Page-1" id="7e0a89b8-554c-2b80-1dc8-d5c74ca68de4">
    <mxGraphModel grid="1" page="1" gridSize="10" guides="1" tooltips="1" connect="1" arrows="1" fold="1" pageScale="1" pageWidth="1100" pageHeight="850" background="none" math="0" shadow="0">
      <root>
        <mxCell id="0" />
        <mxCell id="1" parent="0" />
        <mxCell id="wHKPXEgMvavMtHoTAHWf-1" value="" style="shape=image;verticalLabelPosition=bottom;labelBackgroundColor=default;verticalAlign=top;aspect=fixed;imageAspect=0;image=data:image/jpeg,/9j/4AAQSkZJRgABAQEAYABgAAD/4QL6RXhpZgAATU0AKgAAAAgABAE7AAIAAAAQAAABSodpAAQAAAABAAABWpydAAEAAAAgAAAC0uocAAcAAAEMAAAAPgAAAAAc6gAAAAEAAAAAAAAAAAAAAAAAAAAAAAAAAAAAAAAAAAAAAAAAAAAAAAAAAAAAAAAAAAAAAAAAAAAAAAAAAAAAAAAAAAAAAAAAAAAAAAAAAAAAAAAAAAAAAAAAAAAAAAAAAAAAAAAAAAAAAAAAAAAAAAAAAAAAAAAAAAAAAAAAAAAAAAAAAAAAAAAAAAAAAAAAAAAAAAAAAAAAAAAAAAAAAAAAAAAAAAAAAAAAAAAAAAAAAAAAAAAAAAAAAAAAAAAAAAAAAAAAAAAAAAAAAAAAAAAAAAAAAAAAAAAAAAAAAAAAAAAAAAAAAAAAAAAAAAAAAAAAAAAAAAAAAAAAAAAAAAAAAAAAAAAAAAAASm9uYXRob24gVGl0b2xvAAAFkAMAAgAAABQAAAKokAQAAgAAABQAAAK8kpEAAgAAAAMzNgAAkpIAAgAAAAMzNgAA6hwABwAAAQwAAAGcAAAAABzqAAAAAQAAAAAAAAAAAAAAAAAAAAAAAAAAAAAAAAAAAAAAAAAAAAAAAAAAAAAAAAAAAAAAAAAAAAAAAAAAAAAAAAAAAAAAAAAAAAAAAAAAAAAAAAAAAAAAAAAAAAAAAAAAAAAAAAAAAAAAAAAAAAAAAAAAAAAAAAAAAAAAAAAAAAAAAAAAAAAAAAAAAAAAAAAAAAAAAAAAAAAAAAAAAAAAAAAAAAAAAAAAAAAAAAAAAAAAAAAAAAAAAAAAAAAAAAAAAAAAAAAAAAAAAAAAAAAAAAAAAAAAAAAAAAAAAAAAAAAAAAAAAAAAAAAAAAAAAAAAAAAAAAAAAAAAAAAAAAAAAAAAAAAAAAAAAAAyMDI0OjA0OjIyIDE5OjU1OjMwADIwMjQ6MDQ6MjIgMTk6NTU6MzAAAABKAG8AbgBhAHQAaABvAG4AIABUAGkAdABvAGwAbwAAAP/hBCJodHRwOi8vbnMuYWRvYmUuY29tL3hhcC8xLjAvADw/eHBhY2tldCBiZWdpbj0n77u/JyBpZD0nVzVNME1wQ2VoaUh6cmVTek5UY3prYzlkJz8+DQo8eDp4bXBtZXRhIHhtbG5zOng9ImFkb2JlOm5zOm1ldGEvIj48cmRmOlJERiB4bWxuczpyZGY9Imh0dHA6Ly93d3cudzMub3JnLzE5OTkvMDIvMjItcmRmLXN5bnRheC1ucyMiPjxyZGY6RGVzY3JpcHRpb24gcmRmOmFib3V0PSJ1dWlkOmZhZjViZGQ1LWJhM2QtMTFkYS1hZDMxLWQzM2Q3NTE4MmYxYiIgeG1sbnM6ZGM9Imh0dHA6Ly9wdXJsLm9yZy9kYy9lbGVtZW50cy8xLjEvIi8+PHJkZjpEZXNjcmlwdGlvbiByZGY6YWJvdXQ9InV1aWQ6ZmFmNWJkZDUtYmEzZC0xMWRhLWFkMzEtZDMzZDc1MTgyZjFiIiB4bWxuczp4bXA9Imh0dHA6Ly9ucy5hZG9iZS5jb20veGFwLzEuMC8iPjx4bXA6Q3JlYXRlRGF0ZT4yMDI0LTA0LTIyVDE5OjU1OjMwLjM2MTwveG1wOkNyZWF0ZURhdGU+PC9yZGY6RGVzY3JpcHRpb24+PHJkZjpEZXNjcmlwdGlvbiByZGY6YWJvdXQ9InV1aWQ6ZmFmNWJkZDUtYmEzZC0xMWRhLWFkMzEtZDMzZDc1MTgyZjFiIiB4bWxuczpkYz0iaHR0cDovL3B1cmwub3JnL2RjL2VsZW1lbnRzLzEuMS8iPjxkYzpjcmVhdG9yPjxyZGY6U2VxIHhtbG5zOnJkZj0iaHR0cDovL3d3dy53My5vcmcvMTk5OS8wMi8yMi1yZGYtc3ludGF4LW5zIyI+PHJkZjpsaT5Kb25hdGhvbiBUaXRvbG88L3JkZjpsaT48L3JkZjpTZXE+DQoJCQk8L2RjOmNyZWF0b3I+PC9yZGY6RGVzY3JpcHRpb24+PC9yZGY6UkRGPjwveDp4bXBtZXRhPg0KICAgICAgICAgICAgICAgICAgICAgICAgICAgICAgICAgICAgICAgICAgICAgICAgICAgICAgICAgICAgICAgICAgICAgICAgICAgICAgICAgICAgICAgICAgICAgICAgICAgIAogICAgICAgICAgICAgICAgICAgICAgICAgICAgICAgICAgICAgICAgICAgICAgICAgICAgICAgICAgICAgICAgICAgICAgICAgICAgICAgICAgICAgICAgICAgICAgICAgICAgCiAgICAgICAgICAgICAgICAgICAgICAgICAgICAgICAgICAgICAgICAgICAgICAgICAgICAgIDw/eHBhY2tldCBlbmQ9J3cnPz7/2wBDAAcFBQYFBAcGBQYIBwcIChELCgkJChUPEAwRGBUaGRgVGBcbHichGx0lHRcYIi4iJSgpKywrGiAvMy8qMicqKyr/2wBDAQcICAoJChQLCxQqHBgcKioqKioqKioqKioqKioqKioqKioqKioqKioqKioqKioqKioqKioqKioqKioqKioqKir/wAARCAL+BTIDASIAAhEBAxEB/8QAHwAAAQUBAQEBAQEAAAAAAAAAAAECAwQFBgcICQoL/8QAtRAAAgEDAwIEAwUFBAQAAAF9AQIDAAQRBRIhMUEGE1FhByJxFDKBkaEII0KxwRVS0fAkM2JyggkKFhcYGRolJicoKSo0NTY3ODk6Q0RFRkdISUpTVFVWV1hZWmNkZWZnaGlqc3R1dnd4eXqDhIWGh4iJipKTlJWWl5iZmqKjpKWmp6ipqrKztLW2t7i5usLDxMXGx8jJytLT1NXW19jZ2uHi4+Tl5ufo6erx8vP09fb3+Pn6/8QAHwEAAwEBAQEBAQEBAQAAAAAAAAECAwQFBgcICQoL/8QAtREAAgECBAQDBAcFBAQAAQJ3AAECAxEEBSExBhJBUQdhcRMiMoEIFEKRobHBCSMzUvAVYnLRChYkNOEl8RcYGRomJygpKjU2Nzg5OkNERUZHSElKU1RVVldYWVpjZGVmZ2hpanN0dXZ3eHl6goOEhYaHiImKkpOUlZaXmJmaoqOkpaanqKmqsrO0tba3uLm6wsPExcbHyMnK0tPU1dbX2Nna4uPk5ebn6Onq8vP09fb3+Pn6/9oADAMBAAIRAxEAPwD06iiivoz40KKKKACiiigAooooAKKKKACiiigAooooAKKKKACiiigAooooAKKKKACiiigAooooAKKKKACiiigAooooAKKKKACiiigAooooAKKKKACiiigAooooAKKKKACiiigAooooAKKKKACiiigAooooAKKKKACiiigAooooAKKKKACiiigAooooAKKKKACiiigAooooAKKKKACiiigAooooAKKKKACiiigAooooAKKKKACiiigAooooAKKKKACiiigAooooAKKKKACiiigAooooAKKKKACiiigAooooAKKKKACiiigAooooAKKKKACiiigAooooAKKKKACiiigAooooAKKKKACiiigAooooAKKKKACiiigAooooAKKKKACiiigAooooAKKKKACiiigAooooAKKKKACiiigAooooAKKKKACiiigAooooAKKKKACiiigAooooAKKKKACiiigAooooAKKKKACiiigAooooAKKKKACiiigAooooAKKKKACiiigAooooAKKKKACiiigAooooAKKKKACiiigAooooAKKKKACiiigAooooAKKKKACiiigAooooAKKKKACiiigAooooAKKKKACiiigAooooAKKKKACiiigAooooAKKKKACiiigAooooAKKKKACiiigAooooAKKKKACiiigAooooAKKKKACiiigAooooAKKKKACiiigAooooAKKKKACiiigAooooAKKKKACiiigAooooAKKKKACiiigAooooAKKKKACiiigAooooAKKKKACiiigAooooAKKKKACiiigAooooAKKKKACiiigAooooAKKKKACiiigAooooAKKKKACiiigAooooAKKKKACiiigAooooAKKKKACiiigAooooAKKKKACiiigAooooAKKKKACiiigAooooAKKKKACiiigAooooAKKKKACiiigAooooAKKKKACiiigAooooAKKKKACiiigAooooAKKKKACiiigAooooAKKKKACiiigAooooAKKKKACiiigAooooAKKKKACiiigAooooAKKKKACiiigAooooAKKKKACiiigAooooAKKKKACiiigAooooAKKKKACiiigAooooAKKKKACiiigAooooAKKKKACiiigAooooAKKKKACiiigAooooAKKKKACiiigAooooAKKKKACiiigAooooAKKKKACiiigAooooAKKKKACiiigAooooAKKKKACiiigAooooAKKKKACiiigAooooAKKKKACiiigAooooAKKKKACiiigAooooAKKKKACiiigAooooAKKKKACiiigAooooAKKKKACiiigAooooAKKKKACiiigAooooAKKKKACiiigAooooAKKKKACiiigAooooAKKKKACiiigAooooAKKKKACiiigAooooAKKKKACiiigAooooAKKKKACiiigAooooAKKKKACiiigAooooAKKKKACiiigAooooAKKKKACiiigAooooAKKKKACiiigAooooAKKKKACiiigAooooAKKKKACiiigAooooAKKKKACiiigAooooAKKKKACiiigAooooAKKKKACiiigAooooAKKKKACiiigAooooAKKKKACiiigAooooAKKKKACiiigAooooAKKKKACiiigAooooAKKKKACiiigAooooAKKKKACiiigAooooAKKKKACiiigAooooAKKKKACiiigAooooAKKKKACiiigAooooAKKKKACiiigAooooAKKKKACiiigAooooAKKKKACiiigAooooAKKKKACiiigAooooAKKKKACiiigAooooAKKKKACiiigAooooAKKKKACiiigAooooAKKKKACiiigAooooAKKKKACiiigAooooAKKKKACiiigAooooAKKKKACiiigAooooAKKKKACiiigAooooAKKKKACiiigAooooAKKKKACiiigAooooAKKKKACiiigAooooAKKKKACiiigAooooAKKKKACiiigAooooAKKKKACiiigAooooAKKKKACiiigAooooAKKKKACiiigAooooAKKKKACiiigAooooAKKKKACiiigAooooAKKKKACiiigAooooAKKKKACiiigAooooAKKKKACiiigAooooAKKKKACiiigAooooAKKKKACiiigAooooAKKKKACiiigAooooAKKKKACiiigAooooAKKKKACiiigAooooAKKKKACiiigAooooAKKKKACiiigAooooAKKKKACiiigAooooAKKKKACiiigAooooAKKKKACiiigAooooAKKKKACiiigAooooAKKKKACiiigAooooAKKKKACiiigAooooAKKKKACiiigAooooAKKKKACiiigAooooAKKKKACiiigAooooAKKKKACiiigAooooAKKKKACiiigAooooAKKKKACiiigAooooAKKKKACiiigAooooAKKKKACiiigAooooAKKKKACiiigAooooAKKKKACiiigAooooAKKKKACiiigAooooAKKKKACiiigAooooAKKKKACiiigAooooAKKKKACiiigAooooAKKKKACiiigAooooAKKKKACiiigAooooAKKKKACiiigAooooAKKKKACiiigAooooAKKKKACiiigAooooAKKKKACiiigAooooAKKKKACiiigAooooAKKKKACiiigAooooAKKKKACiiigAooooAKKKKACiiigAooooAKKKKACiiigAooooAKKKKACiiigAooooAKKKKACiiigAooooAKKKKACiiigAooooAKKKKACiiigAooooAKKKKACiiigAooooAKKKKACiiigAooooAKKKKACiiigAooooAKKKKACiiigAooooAKKKKACiiigAooooAKKKKACiiigAooooAKKKKACiiigAooooAKKKKACiiigAooooAKKKKACiiigAooooAKKKKACiiigAooooAKKKKACiiigAooooAKKKKACiiigAooooAKKKKACiiigAooooAKKKKACiiigAooooAKKKKACiiigAooooAKKKKACiiigAooooAKKKKACiiigAooooAKKKKACiiigAooooAKKKKACiiigAooooAKKKKACiiigAooooAKKKKACiiigAooooAKKKKACiiigAooooAKKKKACiiigAooooAKKKKACiiigAooooAKKKKACiiigAooooAKKKKACiiigAooooAKKKKACiiigAooooAKKKKACiiigAooooAKKKKACiiigAooooAKKKKACiiigAooooAKKKKACiiigAooooAKKKKACiiigAooooAKKKKACiiigAooooAKKKKACiiigAooooAKKKKACiiigAooooAKKKKACiiigAooooAKKKKACiiigAooooAKKKKACiiigAooooAKKKKACiiigAooooAKKKKACiiigAooooAKKKKACiiigAooooAKKKKACiiigAooooAKKKKACiiigAooooAKKKKACiiigAooooAKKKKACiiigAooooAKKKKACiiigAooooAKKKKACiiigAooooAKKKKACiiigAooooAKKKKACiiigAooooAKKKKACiiigAooooAKKKKACiiigAooooAKKKKACiiigAooooAKKKKACiiigAooooAKKKKACiiigAooooAKKKKACiiigAooooAKKKKACiiigAooooAKKKKACiiigAooooAKKKKACiiigAooooAKKKKACiiigAooooAKKKKACiiigAooooAKKKKACiiigAooooAKKKKACiiigAooooAKKKKACiiigAooooAKKKKACiiigAooooAKKKKACiiigAooooAKKKKACiiigAooooAKKKKACiiigAooooAKKKKACiiigAooooAKKKKACiiigAooooAKKKKACiiigAooooAKKKKACiiigAooooAKKKKACiiigAooooAKKKKACiiigAooooAKKKKACiiigAooooAKKKKACiiigAooooAKKKKACiiigAooooAKKKKACiiigAooooAKKKKACiiigAooooAKKKKACiiigAooooAKKKKACiiigAooooAKKKKACiiigAooooAKKKKACiiigAooooAKKKKACiiigAooooAKKKKACiiigAooooAKKKKACiiigAooooAKKKKACiiigAooooAKKKKACiiigAooooAKKKKACiiigAooooAKKKKACiiigAooooAKKKKACiiigAooooAKKKKACiiigAooooAKKKKACiiigAooooAKKKKACiiigAooooAKKKKACiiigAooooAKKKKACiiigAooooAKKKKACiiigAooooAKKKKACiiigAooooAKKKKACiiigAooooAKKKKACiiigAooooAKKKKACiiigAooooAKKKKACiiigAooooAKKKKACiiigAooooAKKKKACiiigAooooAKKKKACiiigAooooAKKKKACiiigAooooAKKKKACiiigAooooAKKKKACiiigAooooAKKKKACiiigAooooAKKKKACiiigAooooAKKKKACiiigAooooAKKKKACiiigAooooAKKKKACiiigAooooAKKKKACiiigAooooAKKKKACiiigAooooAKKKKACiiigAooooAKKKKACiiigAooooAKKKKACiiigAooooAKKKKACiiigAooooAKKKKACiiigAooooAKKKKACiiigAooooAKKKKACiiigAooooAKKKKACiiigAooooAKKKKACiiigAooooAKKKKACiiigAooooAKKKKACiiigAooooAKKKKACiiigAooooAKKKKACiiigAooooAKKKKACiiigAooooAKKKKACiiigAooooAKKKKACiiigAooooAKKKKACiiigAooooAKKKKACiiigAooooAKKKKACiiigAooooAKKKKACiiigAooooAKKKKACiiigAooooAKKKKACiiigAooooAKKKKACiiigAooooAKKKKACiiigAooooAKKKKACiiigAooooAKKKKACiiigAooooAKKKKACiiigAooooAKKKKACiiigAooooAKKKKACiiigAooooAKKKKACiiigAooooAKKKKACiiigAooooAKjvry1060imu9wEjlAR6+n86krRtkD6eQRnKtWVZtR0OvCRTm7q+hzo8Q6Z6TH8KeNe00/wTVeoqPYy/mL+tU/+fa/r5FL+3tN/55zfkaX+3tN/55TH86uUUexl/MH1qH/Ptf18iqNd03/njN+Rpf7c03/n3n/Jqs0Uexl/MH1qH8iH2mo6XOjSSRyJGhAfk7gPXb1I+mcVvw6XpM8SyRXUbIwyD5n/ANeudopOhJ/aY1i4/wDPtHTf2Ppf/PeP/v5/9emyafosC5luolHvKK5uil9Xl/Ox/XIf8+0bulppWqS3i2EcjpCnll5YmUFj3XcBnHrWFXR+Ff8AV3P1X+tc5RQupzi3e1hYuzp05pWvcKKKK6jgCiiigAooooAKKKKACiiigAooooAKKKKACiiigAooooAKKKKACiiigAooooAKKKKACiiigAooooAKKKKACiiigAooooAKKKKACiiigAooooAKKKKACiiigAooooAKKKKACiiigAooooAKKKKACiiigAooooAKKKKACiiigAooooAKKKKACiiigAooooAKKKKACiiigAooooAKKKKACiiigAooooAKKKKACiiigAooooAKKKKACiiigAooooAKKKKACiiigAooooAKKKKACiiigAooooAKKKKACiiigAooooAKKKKACiiigAooooAKKKKACiiigAooooAKKKKACiiigAooooAKKKKACiiigAooooAKKKKACiiigAooooAKKKKACiiigAooooAKKKKACiiigArWsRm1Qduf51k1rWXFtF9D/OsMR8J3YH+I/QySMHBop8w23Eg9GI/WmVutUcTVnYKKKKBBRRRQAUUUUAFFFFAHUeGI8WUsn958fl/+uucu12XkyDgLIw/Wun8Nf8go/wDXQ/yFc3qH/ITuv+uz/wDoRrioO9aZ6eKjbD0ivRRRXaeYFFFFABRRRQAUUUUAFFFFABRRRQAUUUUAFFFFABRRRQAUUUUAFFFFABRRRQAUUUUAFFFFABRRRQAUUUUAFFFFABRRRQAUUUUAFFFFABRRRQAUUUUAFFFFABRRRQAUUUUAFFFFABRRRQAUUUUAFFFFABRRRQAUUUUAFFFFABRRRQAUUUUAFFFFABRRRQAUUUUAFFFFABRRRQAUUUUAFFFFABRRRQAUUUUAFFFFABRRRQAUUUUAFFFFABRRRQAUUUUAFFFFABRRRQAUUUUAFFFFABRRRQAUUUUAFFFFABRRRQAUUUUAFFFFABRRRQAUUUUAFFFFABRRRQAUUUUAFFFFABRRRQAUUUUAFFFFABRRRQAUUUUAFFFFABRRRQAUUUUAFFFFABRRRQAUUUUAFFFFABVMazdWpYI9o679ihnwRnOM+g45NXK43VzbtNdxiPycLIWdFOeD1BH1rlxL0R6WXpc8jfm8SHzpC1vasysuTvb5856AH/Z6+4oh8TPJNbKLCzxcKhUFz8m4/wAR7YzyO2K5o20bSSAB87EP3iAoy38/6UQQDz9PIgdtyxEKZCPP56n03Vyc8+56nsqe/Kjd1LVprlo1ZfIEdx5bfYz94E45PoMdfep/sSw3dqs17fyrcSFAEk4X6nrj/CsW5VY5H8ySSz23QGFYtt5Py/T/AArfmjhiudODXT2++fbgAkS8fdPpRzS7i9nDsbel6ZBY3Ztmup7kzJ5gefa4XacEAke9bTWNo1xHEFxu5yirj+VYkgtoPEOmRyXLRtMsgW32ErKcDnPQEe9bMhtYNasrd3VGnV9sQjzvIGevbj2ocmuouSPYedKs2vlhKTY27t427fx4pE0SwlvpoHtp9saqRIzkK2ewxUBa1Xx5Hb/bZhKbIsLIRfusbvvlvXj/AOv2pdPNn/wnmrRR3N29wLeIvA6/uYxjjb79/wAT15xi5vubRhHsLaaJp10t2ZNKuITBM0UYkncecAB8w+boSePpUa+HLCS1sZTpEwkn2efGb2QG3BUk5+b5sHA/GnaGLJv+EhW3a/b/AE2UTGUchtoyIsdh0Hfp7Ew28NkfC/hwRWepPBHcQGBDgSR8EBpP9kd/wqeaXcrlj2N2BYdNtzAkQhhjcLHukzvBA5yTnqSOeeK5PUmD38jgqd+GJXoSRz+tdCsKC8vmWyk3NeRszk8OdiDePYAY/D8uf1QYv2BXb8q/L6cCuvB/Gzz8w/hr1KlFFFekeGFFFFABRRRQAUUUUAFFFFABRRRQAUUUUAFFFFABRRRQAUUUUAFFFFABRRRQAUUUUAFFFFABRRRQAUUUUAFFFFABRRRQAUUUUAFFFFABRRRQAUUUUAFFFFABRRRQAUUUUAFFFFABRRRQAUUUUAFFFFABRRRQAUUUUAFFFFABRRRQAUUUUAFFFFABRRRQAUUUUAFFFFABRRRQAUUUUAFFFFABRRRQAUUUUAFFFFABRRRQAUUUUAFFFFABRRRQAUUUUAFFFFABRRRQAUUUUAFFFFABRRRQAUUUUAFFFFABRRRQAUUUUAFFFFABRRRQAUUUUAFFFFABRRRQAUUUUAFFFFABRRRQAUUUUAFFFFABRRRQAUUUUAFFFFABRRRQAUUUUAFFFFABRRRQAUUUUAFFFFABXH6ixF9eAXKoQsuNwHy/d56ds/rXYVymowXB1C5Kwoyt5m0leucYH485rlxPwo9HL377KhcfaEXz1LGEEIoHzc8t646frVOa4RtLd7W6AeONg0zEFUcE56dhx/8AXq0Y5xdwk28ar5HzOOqtxwPbrVMrO+nzRvbxq4V0SPOVYc4/PNcJ7JoGfbZLJBcQxhpUKyXBBVgWHf1NdXcSvHPp2y5t4Q1yAVnAzIMHhf8AarkYoZrjS1T7JFNJlCYJD8vBGfyrrLq3mnk04wWcF2I7tHfzjzEMH5156j8aaEzbuJpo9c0pUvbaFGLh4pVBeXgfcPb8x+NaVxOU8TadEuoQRbkfdbOoLyjH8Jxkcj17dDWXeQ3Mmt6TLb2FrcxRu/nTTHDwAgYK8/49B061o3P21vEmnPDa2ktkiuZriQjzIjjjbz/Q9e1EiCy80w8Xwxf2hbrAbb/j0KfvGbJ53emB/wCO9KS1umbxte2raskqrao66eIsGLn7xbHP0z/EPamypcf8Jdb3CWtg1oLYq92xHnK2T8o9un61JD56eK7m5kXTlsXtlVZlwJ2cHox/u9ePp71g0zWMkN0e68241tTrBuzDcsMeTt+yfL9wf3sevt65qlDdQyeFtCm/tu8lR7qBVukjYPdHdjY46hSeuew5rQ0+aW3utSe8n01I5Zt1t5JAJXaBl/U8D/OKqwyXq6Dp8Eur6el7FNG1y8QXY8YbLKoxxlcDOB7Yp8r7D9pFdS0ZIvtl+PNunIu4Qy87UJVMBefu9CfxrA1MAXzYBA2rgHr0rdkvUE9yz6rH5byxtEiqP3art3LkDncQfzrB1GVJr1nikMi4HzHPNduFjJS1R5mOnCULJ9SrRRRXoHjBRRRQAUUUUAFFFFABRRRQAUUUUAFFFFABRRRQAUUUUAFFFFABRRRQAUUUUAFFFFABRRRQAUUUUAFFFFABRRRQAUUUUAFFFFABRRRQAUUUUAFFFFABRRRQAUUUUAFFFFABRRRQAUUUUAFFFFABRRRQAUUUUAFFFFABRRRQAUUUUAFFFFABRRRQAUUUUAFFFFABRRRQAUUUUAFFFFABRRRQAUUUUAFFFFABRRRQAUUUUAFFFFABRRRQAUUUUAFFFFABRRRQAUUUUAFFFFABRRRQAUUUUAFFFFABRRRQAUUUUAFFFFABRRRQAUUUUAFFFFABRRRQAUUUUAFFFFABRRRQAUUUUAFFFFABRRRQAUUUUAFFFFABRRRQAUUUUAFFFFABRRRQAUUUUAFFFFABRRRQAUUUUAFFFFABRRRQAUUUUAFFFFABRRRQAUUUUAFFFFABRRRQAUUUUAFFFFABRRRQAUUUUAFFFFABRRRQAUUUUAFFFFABRRRQAUUUUAFFFFABRRRQAUUUUAFFFFABRRRQAUUUUAFFFFABRRRQAUUUUAFFFFABRRRQAUUUUAFFFFABRRRQAUUUUAFFFFABRRRQAUUUUAFFFFABRRRQAUUUUAFFFFABRRRQAUUUUAFFFFABRRRQAUUUUAFFFFABRRRQAUUUUAFFFFABRRRQAUUUUAFFFFABRRRQAUUUUAFFFFABRRRQAUUUUAFFFFABRRRQAUUUUAFFFFABRRRQAUUUUAFFFFABRRRQAUUUUAFFFFABRRRQAUUUUAFFFFABRRRQAUUUUAFFFFABRRRQAUUUUAFFFFABRRRQAUUUUAFFFFABRRRQAUUUUAFFFFABRRRQAUUUUAFFFFABRRRQAUUUUAFFFFABRRRQAUUUUAFFFFABRRRQAUUUUAFFFFABRRRQAUUUUAFFFFABRRRQAUUUUAFFFFABRRRQAUUUUAFFFFABRRRQAUUUUAFFFFABRRRQAUUUUAFFFFABRRRQAUUUUAFFFFABRRRQAUUUUAFFFFABRRRQAUUUUAFFFFABRRRQAUUUUAFFFFABRRRQAUUUUAFFFFABRRRQAUUUUAFFFFABRRRQAUUUUAFFFFABRRRQAUUUUAFFFFABRRRQAUUUUAFFFFABRRRQAUUUUAFFFFABRRRQAUUUUAFFFFABRRRQAUUUUAFFFFABRRRQAUUUUAFFFFABRRRQAUUUUAFFFFABRRRQAUUUUAFFFFABRRRQAUUUUAFFFFABRRRQAUUUUAFFFFABRRRQAUUUUAFFFFABRRRQAUUUUAFFFFABRRRQAUUUUAFFFFABRRRQAUUUUAFFFFABRRRQAUUUUAFFFFABRRRQAUUUUAFFFFABRRRQAUUUUAFFFFABRRRQAUUUUAFFFFABRRRQAUUUUAFFFFABRRRQAUUUUAFFFFABRRRQAUUUUAFFFFABRRRQAUUUUAFFFFABRRRQAUUUUAFFFFABRRRQAUUUUAFFFFABRRRQAUUUUAFFFFABRRRQAUUUUAFFFFABRRRQAUUUUAFFFFABRRRQAUUUUAFFFFABRRRQAUUUUAFFFFABRRRQAUUUUAFFFFABRRRQAUUUUAFFFFABRRRQAUUUUAFFFFABRRRQAUUUUAFFFFABRRRQAUUUUAFFFFABRRRQAUUUUAFFFFABRRRQAUUUUAFFFFABRRRQAUUUUAFFFFABRRRQAUUUUAFFFFABRRRQAUUUUAFFFFABRRRQAUUUUAFFFFABRRRQAUUUUAFFFFABRRRQAUUUUAFFFFABRRRQAUUUUAFFFFABRRRQAUUUUAFFFFABRRRQAUUUUAFFFFABRRRQAUUUUAFFFFABRRRQAUUUUAFFFFABRRRQAUUUUAFFFFABRRRQAUUUUAFFFFABRRRQAUUUUAFFFFABRRRQAUUUUAFFFFABRRRQAUUUUAFFFFABRRRQAUUUUAFFFFABRRRQAUUUUAFFFFABRRRQAUUUUAFFFFABRRRQAUUUUAFFFFABRRRQAUUUUAFFFFABRRRQAUUUUAFFFFABRRRQAUUUUAFFFFABRRRQAUUUUAFFFFABRRRQAUUUUAFFFFABRRRQAUUUUAFFFFABRRRQAUUUUAFFFFABRRRQAUUUUAFFFFABRRRQAUUUUAFFFFABRRRQAUUUUAFFFFABRRXn/jPxtd2GpPpukOsRix5s20E7uu0Z4rqwuFqYqp7OmXCDm7I9Aorw2XxTrM7EyandfRZmUfkKqvq17L/rLuZ/96VjXsxyGp1mvuOhYV9We9M6r95gPqaia9tU+/cwr9ZAK8E83JydpJ6ktSlwf7v/AH1WqyFdan4f8Er6qu57o+taXH/rNStF/wB6dR/WoW8R6KvXVbP8JlP9a8Q3D2/76FG5f8sKtZFT6zY/qy7ntbeKtCXrqlv+DZqJvGfh9OupRn6Ix/kK8Y8xf8mk81KtZFR6yf4f5B9Wj3PYz478Oj/l/J+kMn/xNRnx94fHS6kP0hb/AAryHzk9aBKh6Gr/ALDw/eX4f5B9Xgetn4haCOkk5+kRpjfEbRB0F030iH+NeUiRaUSj0Bp/2Lhl3+8f1eB6gfiVo4PFtfH/ALZp/wDFU0/EvS+1peH/AICn/wAVXmom/wBhfyp4mPZF/wC+RT/sjCro/vH7CmeiH4maf2sbr8dv+NNPxNsu2n3B/wCBLXn/AJjn+Af98UEyH+E/gtH9lYT+X8WHsKZ3p+J1t/Dpsx+so/wpp+J8f8OlOfrOB/7LXB7HPZvyo8hj2f8AKq/svB/y/i/8w9jT7HcH4oHtpH/kz/8AYUh+J79tJX/wI/8Asa4gWpPZ6d9k9cj8af8AZuC/k/F/5h7Gn2O0PxOm7aUn/f8AP/xNN/4WbcdtLj/7/H/CuNFqvZx/31TxaA/x/wDj1H9n4JfY/F/5j9lT7HXf8LMuu2mxf9/D/hTT8TLztp0H/fZrlxYZ/i/8ep40zPr/AN9Gl9RwS+x+f+Yeyp9jpD8TL7tp9v8A99NSH4l6h/z4235tXPDR1br/AOhGpF0ND3UfVjS+qYFfY/P/ADD2VPsbn/CzNR/58rX82/xpP+Fmal2s7T/x7/GslfD8J6yRD6k1Kvh227zwD8D/AIVLw+AX2PzD2VPsaH/Cy9T7Wln+Tf40f8LL1T/n1svyb/4qqY8PWfeeD/vg/wCFL/YVmvSWM/SM0vY4D+T8x+zp9i3/AMLK1T/n1sv/AB7/AOKo/wCFl6oOtpZ/+Pf/ABVVP7ItR0YH/gNL/ZkA6fypexwX/PsXs6fYtf8ACzNS/wCfO1P03f404fEzUf8Anwtz9A3+NVP7Ph9KcLCEfw0vY4L/AJ9i5KfYuL8StQPXTof/AB6pV+I16eunQ/8AfZrP+xRD+Gj7LEP4al4fBv8A5d/mHs6fY1B8RbrvpkZ+kp/wqQfEaXvpOfpP/wDY1jfZ4/7tIYIx/DU/VcI/sfi/8xezp9jo4viHbnHnadMnrtcN/hXQ6RrVprVu0tmzZQ4dHGGX615w0SD+Gt7wUduszqOA0BJHrhl/xNceKwVCNJzpqzRnUpRUbo7miiivAOQKKKKACiiigAooooAKKKKACiiigAooooAKKKKACiiigAooooAKKKKACiiigAooooAKKKKACiiigAooooAKKKKACiiigAooooAKKKKACiiigAooooAKKKKACiiigAooooAKKKKACiiigAooooAKKKKACiiigAooooAKKKKACiiigAooooAKKKKACiiigAooooAKKKKACiiigAooooAKKKKACiiigAooooAKKKKACiiigAooooAKKKKACiiigAooooAKKKKACiiigAooooAKKKKACiiigAooooAKKKKACiiigAooooAKKKKACiiigAooooAKKKKACiiigArxHxl/yN2o/wDXX+gr26vEvGn/ACN+o/8AXX+gr6HIf48vT9UdWG+JmAabmlNJX2J3BRRRTEJTTSmmmmA3ktwSKkxTF6k0+kgAgelKoA6UlKKYEq1KoFRLUq1kxE6DHSplJ9ahWpVrCQEyk+tPB96jWpBWTEPFPFRipBUMQ9aeKYKcKzYh4A708CmCnioYDxTxTBThUMQ8U8UwU4VADxThTBTxUsB1LTaWpAcDS00GlpAOopKKQBSE0UlMBDTDTjTTVICNq2vBpxrz+8DfzWsVq2PB5xr594W/mKyxP8CfoTU+Bne0UUV8oeeFFFFABRRRQAUUUUAFFFFABRRRQAUUUUAFFFFABRRRQAUUUUAFFFFABRRRQAUUUUAFFFFABRRRQAUUUUAFFFFABRRRQAUUUUAFFFFABRRRQAUUUUAFFFFABRRRQAUUUUAFFFFABRRRQAUUUUAFFFFABRRRQAUUUUAFFFFABRRRQAUUUUAFFFFABRRRQAUUUUAFFFFABRRRQAUUUUAFFFFABRRRQAUUUUAFFFFABRRRQAUUUUAFFFFABRRRQAUUUUAFFFFABRRRQAUUUUAFFFFABRRRQAUUUUAFFFFABRRRQAUUUUAFFFFABRRRQAUUUUAFFFFABRRRQAV4l4348Yah/wBdB/6CK9Q17xfpfh8+XdSNLcYyIIhlvx7D8a8d8Rar/bGu3N9DAY0mYEKzZI4A/pX0eS06kKjqSTs1+qOzDQle/QoE03NQPcCP/WDH40w3iBQwVmB9MV9R7aC3Z22ZborOk1q2hI85ZUz3KUz/AISGw/vv+KGsnmGETs6iT9R+zn2NM001n/8ACQaef+Wjf98GkOvWH/PVv++DR/aGD/5+x+9B7OfY0R0pwrMGvWH/AD1b/vg07+3tPH/LZv8Avg/4U/7Qwn/P2P3oPZz7GjSis9NasZPuSk/8ANdBd6Ld2Gl2OoTqn2e+TzISrZJGAeR24IrSGLw9RqMJpt9mRJOO5UWpVqJalWtJCJ1qVaiWpVrGQEq08VGtSCsmIeKeKYKeKzYh4p4puGCbgpYe1UdS1iDS7Jrm4jkZFIBCAE8/jWcmlFyeyBJvRGmKeK5EfEHTe1tdf98r/wDFUv8AwsLTh/y6XX5L/jXB9ew386NPY1Ox14p4rj/+FhWPayuvyH+NB+IVqOmn3J/EUfW6D+2hexn2OyFPFcUfiHH/AMs9Lnb6uB/So/8AhYkv/QGb/v8A/wD2NRLGUF9r8x+xqdjuxThXB/8ACxLg9NH/API5/wDiaQ/ES7HTSF/GU/8AxNT9bo9/wf8AkHsZ9jvhTq4ceOrtv+XCNfqxNdr4WkGu+FL3VLhTHNbzeWqIflIwp5zz/Ea1lOMVe5nKLgrsfS0lFMkdRmkooAKSiimA0001yfxBubm1062ktbmWAmXafLcrkYPp9K8+bVL9+HvblvrKx/rXDiMdDDz5ZJs6KdBzV7ntDuqj5mA+pq34Z1nT7XxEqzXkQYxt8obcfyHOK8IJLfMxJJPJPNb3gEbfE4A7xPn9K5qWZLFT9hyWT63/AOAXUwqUG2z6gguYbqISW0qSp/eRs1LXmVjfz6dcie2fa38Q7MPQ16LZXaX1lFcxfdkXOPQ9x+dcuKwjoO6d0zxqlNwLFFFFcJmFFFFABRRRQAUUUUAFFFFABRRRQAUUUUAFFFFABRRRQAUUUUAFFFFABRRRQAUUUUAFFFFABRRRQAUUUUAFFFFABRRRQAUUUUAFFFFABRRRQAUUUUAFFFFABRRRQAUUUUAFFFFABRRRQAUUUUAFFFFABRRRQAUUUUAFFFFABRRRQAUUUUAFFFFABRRRQAUUUUAFFFFABRRRQAUUUUAFFFFABRRRQAUUUUAFFFFABRRRQAUUUUAFFFFABRRRQAUUUUAFFFFABRRRQAUUUUAFFFFABRRRQAUUUUAFFFFABRRRQAUUUUAFFFFABRRRQAUUUUAFY3izXF8PeGrrUCQHUBIyRkBmOAfw6/hWzXLfEXTJtV8E3cNsMyRlZceoU5P6Zraik6sU+6LppOaT2PFptcsrmZ5ZtRheRyWZnlGST9asWhhu18yGRJY+m5GBB/EVzN74b+0ZZSiSf3gev1rf8OWr2OkpbTFS6M2Sp4OTmvssNicZKs6dWmlG2jXy08j2pxgo3izKvY2iuZEckkHGT6UkBzHj3rV121yi3KDp8r/0NZEH3T9azlFwrWGneI+XTU1HCu5QLzwM5pn/AAjVt3mlP5Vesj8zfSrddUMvwlZe0qQTbJdScdEzKXw5ZKBkytj1Yf4U4eH7AdUY/VzWnRW6y3Br/l0vuJ9pPuZ39haf/wA8T/32f8acND04H/j3/wDH2/xq/RV/UcJ/z6j9yFzz7lIaLZbTsiKZ7qx/rXoniuMR+AfC6gkhIAoz/uL/AIVxQruPFfPw/wDDh/2Mf+O1x1sPRpYijKnFLV7K3RmVSTbjdnFrUq1EtSrXpsomWplqFamWsZCJFqQVGtSCsmA8U8UwU8VmxFu3/wBV+NZniSyju9JZGABLLzj3rTt/9X+NVtX505v94VioqU+V7ME7O5wv9hBfuiMj34pP7KkT7sKn6EVtYNLg+hrd5fh+isb+0kYZtZE+9Cf++aZtUdh+VdBtPpTXhWQYeMN9RUSwEfssaqPqYeB/kUYxWo+mxt9zcn05qnPZSQDJG5fUDpXPPD1Kau0UpJlbFN6VJtPpTSpxwKysUWk5AyO1en+AwP8AhAdWA/5+M/oteXK4AGfT0r0LwNrWnweF9R0+e5VLq4lzFEQcvwPb2rXGWlQSW91+ZyVk3EvUtJRWBAtFFFABSGg0hoA5Tx5Es2mW4foJv/ZTXn72AzlGx9a9E8b/APIMg/67f+ymuINcuIw9OrrJHZRk1EzDG0TYYfjW54FOPFKe8bj9Kz7vHkHI5Her3gYM/i61SMZZ1cADv8hNeLRorD4yKT0Omo+amz1GvQPDKMnh+3DjGdxGfQsa53SfDFzdyrJfI0EAOSG4Z/bHb612yIsaKiAKqjAA7Cu7McRCSVOLueBWmmrIdRRRXjHOFFFFABRRRQAUUUUAFFFFABRRRQAUUUUAFFFFABRRRQAUUUUAFFFFABRRRQAUUUUAFFFFABRRRQAUUUUAFFFFABRRRQAUUUUAFFFFABRRRQAUUUUAFFFFABRRRQAUUUUAFFFFABRRRQAUUUUAFFFFABRRRQAUUUUAFFFFABRRRQAUUUUAFFFFABRRRQAUUUUAFFFFABRRRQAUUUUAFFFFABRRRQAUUUUAFFFFABRRRQAUUUUAFFFFABRRRQAUUUUAFFFFABRRRQAUUUUAFFFFABRRRQAUUUUAFFFFABRRRQAUUUUAFFFFABRRRQAUUUUAFJ160tFAHB6/8NoLu4e50Z44GY5aBx8mfYjp9P5VwOq2LeH9RNpqBEUwUNgcgg+4r3quT8aeCx4lEVxayJFeQrsy4+V164J7YOfzr3cFmlWDVOo9O7OujXd7Teh5Q9zZXELRSXEYVhg5OK54QNEWX72GIDKOD713Vx8N9egJ/wBFWVR3jdT+mc/pWbP4X1K1z9os7iIDqWiIH517ylSrNNTX3nbGcOjMC0+WRtwIGO4qyZVH94/hV0abJS/2c49a9CnaEeVMG7sz/PX+635Un2lf7jflWkNPPoad/Z3qKrn8xaGV9pH9w0C5z0jNa39nj+7+lKLBR/DU87/mC6MkXB/551bOoXdzBHBPNK0MX+rjaQlV+g7VcFgvpThYL6Uc6vdu4XRRWpVq2LJR2p4tFHah1IiK61MtSC3ApwhA71m5IQ1akFHlr60oRfWs7oBwpwpgVfWlAQd6kRZWcQwnIZjngKM1nX8t1cwlUjYDIwoFWw6jvTvNWlH3XewHP/Y709IX/Kl+wX56Qv8ApXQicClFyB2H5Vq68+w7nPDTdRP/ACyb8xSjStRP/LJv++l/xroxegfwr+VSLqW3pGn4rUuvV6ILnNDSNSP/ACy/8fX/ABqG88O6rcQhI1xzkkygV1w1d16Rx/8AfAp41ycdFiH/AGzFY1KtacXFxVmNOzucEPBmrnvGP+2pqVfBerd5If8Av4f8K7oa7dnp5Y/7ZikOtXZ/iUfRRXD7CS6fiy/aSOKHgrVe80H4u3+FaOkeFr6w1OG5mmhKRnJCsxJ4+ldEdVum6v8ApTDfzt1etFSkhOcmXaXNZxu5T1ak+0yetV7NmVmaWRSbh61nee/rSedJ/eo9kwszS3Cmlh61Bb2WoXePs1tNKD0KoSPzrSg8J61P96JYR6ySD+mTWUpU4fFJITaW7MbUdNtdTRFu9xVDkBWxzVEeGNHX/lgT9ZG/xruoPAkxwbq/VfURoT+px/KtODwXpcX+tM05/wBp8D9MVyzx2Gj1v8iPbxjszzf+xNJXpZQnH94bv512fgvQViuv7SNusUaqVhO3BYngke2OPxrp4NE0y2x5NjCCOhZNxH4nmrwGBgdK4cRmPPBwpq19zGpXclZC0UUV45zBRRRQAUUUUAFFFFABRRRQAUUUUAFFFFABRRRQAUUUUAFFFFABRRRQAUUUUAFFFFABRRRQAUUUUAFFFFABRRRQAUUUUAFFFFABRRRQAUUUUAFFFFABRRRQAUUUUAFFFFABRRRQAUUUUAFFFFABRRRQAUUUUAFFFFABRRRQAUUUUAFFFFABRRRQAUUUUAFFFFABRRRQAUUUUAFFFFABRRRQAUUUUAFFFFABRRRQAUUUUAFFFFABRRRQAUUUUAFFFFABRRRQAUUUUAFFFFABRRRQAUUUUAFFFFABRRRQAUUUUAFFFFABRRRQAUUUUAFFFFABRRRQAUUUUAFFFFABRRRQBXnsbS6GLm1hl/34w386zp/CeiXH3rFEPrGxX+RrZorWFapD4ZNfMalJbM5Sf4f6a5JhnuYj6bgwH6Z/Ws6f4dzjP2bUI39BJGV/kTXeUV1xzHFR+0aKtUXU8yn8D61DykUU/wD1zkH9cVmz6Dq1t/rdPuB7rGWH5ivX6K6o5xWXxJM0WIl1PEnVo22yKyMOoYYNJmva5Io5l2yxq49GXNZ8/hzR7jPmadAM9Si7D+mK6oZzB/FD+vwLWJXVHkmaXNekz+BNHl/1YngP+xJn/wBCzWbP8OlPNrqLD2kjz+oP9K6o5phpbtr5GirwZwzGmFqt+LNPl8KPbC+dZlud2xoecbcZznHqPWudGu2fd2H1U13069GaupI2ScldGtuo3VljXLEnAlP/AHwf8KkGrWrdJD/3ya1jOEtmn8w5ZdjQzRmqi38DfdY/kaeLqM9CfyrTkYizmjNQidT/APqpRKDS5WImzS5qIOKcGqbAPzS5pmaWkA7NKDTaKLATKc06l8FRr4j8UXOm3e6GKCF33RkbmKuq9xjHPpXpdv4P0aDk2xlb1lkY/pnH6V5NbMqFKTjq2TUqKm7SPMywXG4gZ9TVy30rUbo/6PY3Lg9G8ohT+J4/WvVLaws7MYtLWGD/AK5xhf5VYrgnm7+xD7zB4nsjza38Ga1PgvDDbj/ptKM/+O5rUt/h+2c3eo8f3YosH8yf6V2tFcc8yxMtnb0Rm682c9b+CtIhx5qzXBHeSUj9FwK1bfSdPtP+PaygjP8AeEYz+fWrlFck69WfxSb+Zk5ye7CiiisSQooooAKKKKACiiigAooooAKKKKACiiigAooooAKKKKACiiigAooooAKKKKACiiigAooooAKKKKACiiigAooooAKKKKACiiigAooooAKKKKACiiigAooooAKKKKACiiigAooooAKKKKACiiigAooooAKKKKACiiigAooooAKKKKACiiigAooooAKKKKACiiigAooooAKKKKACiiigAooooAKKKKACiiigAooooAKKKKACiiigAooooAKKKKACiiigAooooAKKKKACiiigAooooAKKKKACiiigAooooAKKKKACiiigAooooAKKKKACiiigAooooAKKKKACiiigAooooAKKKKACiiigAooooAKKKKACiiigAooooAKKKKACiiigDyv41D5dH/7b/wDsleSuPSvXvjSubfSG9GmH/oFeRP3r2cNrRR7WF/gr+upGvLirsX61SX74+tXoulelg9zeZoQfdq2lVIOlW0r6RfCjlZOtSrUa1KtZMkeKkFMFPFZMBwp1IKWpELSUtJSA1PhzD5PxFum7S2TMP++kz/KvXK808BIv/CTFyPmFu4B9iV/wr0uvj8yp8mJduupx4l3n8gooorzTnCiiigAooooAKKKKACiiigAooooAKKKKACiiigAooooAKKKKACiiigAooooAKKKKACiiigAooooAKKKKACiiigAooooAKKKKACiiigAooooAKKKKACiiigAooooAKKKKACiiigAooooAKKKKACiiigAooooAKKKKACiiigAooooAKKKKACiiigAooooAKKKKACiiigAooooAKKKKACiiigAooooAKKKKACiiigAooooAKKKKACiiigAooooAKKKKACiiigAooooAKKKKACiiigAooooAKKKKACiiigAooooAKKKKACiiigAooooAKKKKACiiigAooooAKKKKACiiigAooooAKKKKACiiigAooooAKKKKACiiigAooooAKKKKACiiigAooooAKKKKAPM/jMpOn6WR/wA9JP5LXkZhY1794+8Mz+JNGiWy2m5t5N6oxxvBGCM+vT8q8oufCup2JP2yzmhA/iZDj8+lfRZbThVp2ctex6mGqxVNROXFuQwPvV6K34rTGk565qddOx3Ne/Rw9Ok9TeU7lKGLAFWkjqwtkF7mpVgUfxV1OouhlcgVKkVanEaf3qeEj9aycxEIFPAqdRAPvbj9DU6PYD70MjH/AK6Y/pWTn5AUxSirjPZH/V27j6yZ/pURWM/dUj8aXNfoBDRS+db+aIlbfIekaDcx/Ac1fi8O+INQAGn6U0Kt/wAtrw+WB/wH7x/KsamJpUl78rC23NTwIceJB7wt/SvS65HwZ4Mm8PSzXup3gur6ZdmEz5ca5yQM9c4HOBXXV8pj68a9bnhscNaSc9AooorgMQooooAKKKKACiiigAooooAKKKKACiiigAooooAKKKKACiiigAooooAKKKKACiiigAooooAKKKKACiiigAooooAKKKKACiiigAooooAKKKKACiiigAooooAKKKKACiiigAooooAKKKKACiiigAooooAKKKKACiiigAooooAKKKKACiiigAooooAKKKKACiiigAooooAKKKKACiiigAooooAKKKKACiiigAooooAKKKKACiiigAooooAKKKKACiiigAooooAKKKKACiiigAooooAKKKKACiiigAooooAKKKKACiiigAooooAKKKKACiiigAooooAKKKKACiiigAooooAKKKKACiiigAooooAKKKKACiiigAooooAKKKKACiiigAooooAKKKKACiiigAo60UUAZ91oWl3uTc2EDMerBNrfmOaxbrwBpk2TbSz257DduX9ef1rqqK6aeKr0/gky1UlHZnkfi7QX8KWMd3PcLcQySiIbFwwOCenpwe9cmmuWjttBfP8Au16Z8XIxJ4Vtc9Ber/6A9ePwW0azDjt3NfT5fWxFempSs9f62PRotTp3lubyX0T/AHd35VOsyt0zWfbxqAOKvIgr2ZRSKJgc1h3fim3t55IooXlZGK5yFUmtPUJ/smnSyqcPjCfU9K4JoGU+teTjsRUpJKma0oKWrPQPBslx4v13+z1dLFBE0jOF8xjgjgcgd69PtPh7o0ODeG4v3H/PeUhf++VwPzzXmHwbOPGxHrbSf0r3mvm8Riq85WlJ/kceLk4T5Y6IrWenWWnR+XYWkNsnpFGF/lVmiiuE4G29wooopAFFFFABRRRQAUUUUAFFFFABRRRQAUUUUAFFFFABRRRQAUUUUAFFFFABRRRQAUUUUAFFFFABRRRQAUUUUAFFFFABRRRQAUUUUAFFFFABRRRQAUUUUAFFFFABRRRQAUUUUAFFFFABRRRQAUUUUAFFFFABRRRQAUUUUAFFFFABRRRQAUUUUAFFFFABRRRQAUUUUAFFFFABRRRQAUUUUAFFFFABRRRQAUUUUAFFFFABRRRQAUUUUAFFFFABRRRQAUUUUAFFFFABRRRQAUUUUAFFFFABRRRQAUUUUAFFFFABRRRQAUUUUAFFFFABRRRQAUUUUAFFFFABRRRQAUUUUAFFFFABRRRQAUUUUAFFFFABRRRQAUUUUAFFFFABRRRQAUUUUAFFFFABRRRQAUUUUAFFFFABRRRQAUUUUAcR8Vlz4TgPpeJ/6A9eQR/638K9j+KQz4PU+lyh/Rq8dj/1gr7HJf8Ad16npYf+GaNvV1Ko29SXl2tpblifnPCj1NexU0NLXMzXrvzrhbdD8kX3vdqxyg7CpmJdix7mkxXlTXPK7OhaKwW089nN5tpPJBLgjfE5U4+oq5/bus/9Be+/8CX/AMaphSTgDJ7YFXrbTy7DzupOAoohhVUeiFJrqKNY11lBXU79t2cYuHOf1rU0PxL4o0u+WeO9uJEH3orqUujD0IJ4+o5rVns4rax/dhVEa9hWPuz1raGBoVVqtDJtNWsenx/FDTzGvm2Nyr4G4KVIB9jmnf8ACz9N/wCfK7/8d/xry/dS5qP7HwnZ/ec3sIHqKfEvT5HCpY3ZY9B8v+NaVr4zsJ5ljljlgDcbnwQPrg15ZYkQWz3LD5idiUq3kiybt5PsT1rnnlOHd1BW+YvYQPcwQQCDkHoRS1zvgzU/t+jeWzZaAgD/AHT0/qPwroq+WrUnSqOD6HFKPK7BRRRWIgq/pVgLyYtL/qk6+59KoVvac6wWaL3PJ/Gsa0nGOh1YWkqlTXZGtFbwIoCRoo9AoqYRRf3F/KqC3I9akW6968txke4kkXRFH/cX8qesSddi/lVVLjc4Udzirw4FZSujaCTILiytrpNs8KOPXHI/GuU1fSm06YFSWhc/Kx7exrsqqanai806WLGWxuT/AHh0/wAK1oVpU5JN6GGKw0asG0tUcPRRRXtHzQUUUUAFFFFABRRRQAUUUUAFFFFABRRRQAUUUUAFFFFABRRRQAUUUUAFFFFABRRRQAUUUUAFFFFABRRRQAUUUUAFFFFABRRRQAUUUUAFFFFABRRRQAUUUUAFFFFABRRRQAUUUUAFFFFABRRRQAUUUUAFFFFABRRRQAUUUUAFFFFABRRRQAUUUUAFFFFABRRRQAUUUUAFFFFABRRRQAUUUUAFFFFABRRRQAUUUUAFFFFABRRRQAUUUUAFFFFABRRRQAUUUUAFFFFABRRRQAUUUUAFFFFABRRRQAUUUUAFFFFABRRRQAUUUUAFFFFABRRRQAUUUUAFFFFABRRRQAUUUUAFFFFABRRRQAUUUUAFFFFABRRRQAUUUUAcf8Thnwa3tOn9a8aT/WivZ/iYM+C5faaM/rXjCf60V9hkn8D5/wCR6OH/AIZdSTy489T2FUJoHuJC8rkn+VXkTctO8qvdlGEviNk7GZ9iFOFluPFaQhp4jA6VHsqS6D5mVIrRIugy3qatWsebqL/eBp2ypbVMXUf+9VNqMbIlsvakx+xMv94gVjbK3NQhJtM44DCsry6yoySiJEGyl2H1qfy6PLrbmGOu51gtbOAuAzKz4zyearrKTUXiCxjuV06d03NEjKp9DkVWiklXh/mHrWVJybaktL6P/P5jsrHp3wzuSbm4izwYyfyI/wATXo1eZ/C2NmvJ5COPLb+a/wD169Mr43N0li5WPOr/ABhRRRXkmIVsoqjjtWNXQrbAgY6Vy4joengPtfIiAGKkGKk+y/WlFrXKeoS2IBvEH1OK2ayrKHy7pD9f5Vq1zVfiNqewUUUVianA3UYhvJo16JIyj8DUVTXriS/uHU5DSsQfxqGvoo3srnx8rczsFFFFMkKKKKACiiigAooooAKKKKACiiigAooooAKKKKACiiigAooooAKKKKACiiigAooooAKKKKACiiigAooooAKKKKACiiigAooooAKKKKACiiigAooooAKKKKACiiigAooooAKKKKACiiigAooooAKKKKACiiigAooooAKKKKACiiigAooooAKKKKACiiigAooooAKKKKACiiigAooooAKKKKACiiigAooooAKKKKACiiigAooooAKKKKACiiigAooooAKKKKACiiigAooooAKKKKACiiigAooooAKKKKACiiigAooooAKKKKACiiigAooooAKKKKACiiigAooooAKKKKACiiigAooooAKKKKACiiigAooooA5T4kjPgm49pI//AEIV4qv+tXNe2/EUZ8EXfs8f/oYrxNR+9FfYZH/u7/xf5HoYb+GX7erYi3DIFVrVM9a1YwCuO1ezUlZmzKWyjZVzyQzbWO0+tNmtZYCPMQgHkHsRWfOthFbZTkGyRWH8JBpwFOAp3A37tYZbB1XB3rlf5iud2VeglJjEbHp0py2T3M6pbqXkc4CgZJNc1P8AdXTYNlDy6PLrrU+H+rMgJktVJGdpdsj8hT/+Ffap/wA97T/vtv8A4msvr+H/AJ0Z+0h3ORntvtWnNGoy8TblHqPSsdIWdwirlicACvSI/AOrRsGW4s/++2/+Jq7aeA5hcB7uaBF/iMOSx9skChZph6afvXD2sF1LPw+0w2WkPMw5kIVT6gdT+ZP5V11RwQx20CQwqEjQbVUdhUlfH4is69WVR9TgnLmlcKKKK5yQrstMCXGmwSAZO3B+o4rja2/D2pLbSNbTttjkOVY9m/8Ar1zYqDlC8eh24KpGFW0tmdF5C+lHkr6VNRXj8zPouREaxBWyBUlFFJu5SSWwVBe3AtLKWc4+RSRnuew/OpmYIpZyFUDJJOAK5bXtVW8cW9ucwoclh/Ef8K2o0nUnboc2KrqjTb69DGooor3D5cKKKKACiiigAooooAKKKKACiiigAooooAKKKKACiiigAooooAKKKKACiiigAooooAKKKKACiiigAooooAKKKKACiiigAooooAKKKKACiiigAooooAKKKKACiiigAooooAKKKKACiiigAooooAKKKKACiiigAooooAKKKKACiiigAooooAKKKKACiiigAooooAKKKKACiiigAooooAKKKKACiiigAooooAKKKKACiiigAooooAKKKKACiiigAooooAKKKKACiiigAooooAKKKKACiiigAooooAKKKKACiiigAooooAKKKKACiiigAooooAKKKKACiiigAooooAKKKKACiiigAooooAKKKKACiiigAooooAKKKKAOZ+IQz4HvfrH/AOhrXiQ/1i17f8QB/wAUPf8A/bP/ANGLXiP/AC0X619lkf8Auz/xfojvw3wGla1pRVm2taUXSvUq7mzJZF4DfgaFlcR7NxKf3TyKlC7lINQYxwa51qI0vDsMFz4itIp4EkRnIZWGQeD2r0n+wNI/6Btr/wB+hXnHhnjxNY/9dP6GvV6+ezac41Y8ra0OSu2pKxn/ANg6T/0DbX/vytWLfT7O0Yta2sMJPUogBqxRXjOpNqzbOfmbCiiisxBRRRQAUUUUAFFFFABRRRQBOl7dRqFjuZlUdAshAFL/AGhe/wDP3P8A9/W/xqvRU8sexfPNdSx/aF7/AM/c/wD39b/Gj+0L3/n7n/7+t/jVeijkj2D2k+7JZbq4nXbNPJIOuHcmoqKKpJLYltt3YUUUUCCiiigAooooAKKKKACiiigAooooAKKKKACiiigAooooAKKKKACiiigAooooAKKKKACiiigAooooAKKKKACiiigAooooAKKKKACiiigAooooAKKKKACiiigAooooAKKKKACiiigAooooAKKKKACiiigAooooAKKKKACiiigAooooAKKKKACiiigAooooAKKKKACiiigAooooAKKKKACiiigAooooAKKKKACiiigAooooAKKKKACiiigAooooAKKKKACiiigAooooAKKKKACiiigAooooAKKKKACiiigAooooAKKKKACiiigAooooAKKKKACiiigAooooAKKKKACiiigAooooAKKKKACiiigAooooAKKKKACiiigDnvHi7vBGojr8qH/yIteHf8tBXunjYZ8F6l/1zB/8eFeGfxj619jkP+7y/wAX6I78N8DNC261pxVmWvWtOKvVq7mzLaUSR7lLDrQlSY4rj2ZJN4dOPElj/wBdhXrNeS6D8viSx/67qP1r1qvAzj+LH0OTEboKKKK8Q5wooooAKKKKACiiigAooooAKKKKACiiigAooooAKKKKACiiigAooooAKKKKACiiigAooooAKKKKACiiigAooooAKKKKACiiigAooooAKKKKACiiigAooooAKKKKACiiigAooooAKKKKACiiigAooooAKKKKACiiigAooooAKKKKACiiigAooooAKKKKACiiigAooooAKKKKACiiigAooooAKKKKACiiigAooooAKKKKACiiigAooooAKKKKACiiigAooooAKKKKACiiigAooooAKKKKACiiigAooooAKKKKACiiigAooooAKKKKACiiigAooooAKKKKACiiigAooooAKKKKACiiigAooooAKKKKACiiigAooooAKKKKACiiigAooooAKKKKACiiigAooooAKKKKACiiigAooooAxvFsMlx4R1GOFGdzCSFUZJwc14UIpGcFVzX0dXjHj+0i0nxZItigjjljWVo+wY5zj06V9LkeIs5ULb6nXhpbxMe2jcdVNaUQx1rJtruR8ZUCtSElhzX0NW/U6mXENSAio0Xin7eK42SXNBtZrjxJaGBC2yZZG9lBBJr1SuV8BRodJuJtg80zlC3fAVSB+prqq+YzKt7Sty/y6HFWleVuwUUUV5hiFFFFABRRRQAUUUUAFFFFABRRRQAUUUUAFFFFABRRRQAUUUUAFFFFABRRRQAUUUUAFFFFABRRRQAUUUUAFFFFABRRRQAUUUUAFFFFABRRRQAUUUUAFFFFABRRRQAUUUUAFFFFABRRRQAUUUUAFFFFABRRRQAUUUUAFFFFABRRRQAUUUUAFFFFABRRRQAUUUUAFFFFABRRRQAUUUUAFFFFABRRRQAUUUUAFFFFABRRRQAUUUUAFFFFABRRRQAUUUUAFFFFABRRRQAUUUUAFFFFABRRRQAUUUUAFFFFABRRRQAUUUUAFFFFABRRRQAUUUUAFFFFABRRRQAUUUUAFFFFABRRRQAUUUUAFFFFABRRRQAUUUUAFFFFABRRRQAUUUUAFFFFABRRRQAUUUUAFFFFABRRRQAUUUUAFFFFABXkPxRH/FVp72qfzavXq8j+KQ/4qmL/AK9F/wDQmr2sk/3v5M6MP8Zydp/DWzB2rGteq1swdBX11Y7mXU6VIajjqQ9K4HuQdv4E40a5H/TyT/46tdPXMeBf+QTcf9dz/wCgiunr5LG/7xM4KnxsKKKK4zMKKKKACiiigAooooAKKKKACiiigAooooAKKKKACiiigAooooAKKKKACiiigAooooAKKKKACiiigAooooAKKKKACiiigAooooAKKKKACiiigAooooAKKKKACiiigAooooAKKKKACiiigAooooAKKKKACiiigAooooAKKKKACiiigAooooAKKKKACiiigAooooAKKKKACiiigAooooAKKKKACiiigAooooAKKKKACiiigAooooAKKKKACiiigAooooAKKKKACiiigAooooAKKKKACiiigAooooAKKKKACiiigAooooAKKKKACiiigAooooAKKKKACiiigAooooAKKKKACiiigAooooAKKKKACiiigAooooAKKKKACiiigAooooAKKKKACiiigAooooAKKKKACiiigAooooAKKKKACvJfioP+Kot/+vRf/Q3r1quY8S+CbbxLfx3U93LA0cQiwiggjJOefrXp5ZiKeHxCnUelma0ZKMrs8dtO1bMHQV2cfwrtI8Y1OY/9sx/jVuP4d2yf8v8AKf8AgAr6GpmuEltL8Gdbrw7nHx9Kk7V2i+BLVet5Mf8AgIqQeB7Hvc3B+m3/AArkeZYfv+BHtoDfAp/4llyP+m3/ALKK6is/SdHg0eB4rZ5HDtuJkIPP4AVoV8/iakalaU47M5ZtOTaCiiiuYgKKKKACiiigAooooAKKKKACiiigAooooAKKKKACiiigAooooAKKKKACiiigAooooAKKKKACiiigAooooAKKKKACiiigAooooAKKKKACiiigAooooAKKKKACiiigAooooAKKKKACiiigAooooAKKKKACiiigAooooAKKKKACiiigAooooAKKKKACiiigAooooAKKKKACiiigAooooAKKKKACiiigAooooAKKKKACiiigAooooAKKKKACiiigAooooAKKKKACiiigAooooAKKKKACiiigAooooAKKKKACiiigAooooAKKKKACiiigAooooAKKKKACiiigAooooAKKKKACiiigAooooAKKKKACiiigAooooAKKKKACiiigAooooAKKKKACiiigAooooAKKKKACiiigAooooAKKKKACiiigAooooAKKKKACiiigAooooAKKKKACiiigAooooAKKKKACiiigAooooAKKKKACiiigAooooAKKKKACiiigAooooAKKKKACiiigAooooAKKKKACiiigAooooAKKKKACiiigAooooAKKKKACiiigAooooAKKKKACiiigAooooAKKKKACiiigAooooAKKKKACiiigAooooAKKKKACiiigAooooAKKKKACiiigAooooAKKKKACiiigAooooAKKKKACiiigAooooAKKKKACiiigAooooAKKKKACiiigAooooAKKKKACiiigAooooAKKKKACiiigAooooAKKKKACiiigAooooAKKKKACiiigAooooAKKKKACiiigAooooAKKKKACiiigAooooAKKKKACiiigAooooAKKKKACiiigAooooAKKKKACiiigAooooAKKKKACiiigAooooAKKKKACiiigAooooAKKKKACiiigAooooAKKKKACiiigAooooAKKKKACiiigAooooAKKKKACiiigAooooAKKKKACiiigAooooAKKKKACiiigAooooAKKKKACiiigAooooAKKKKACiiigAooooAKKKKACiiigAooooAKKKKACiiigAooooAKKKKACiiigAooooAKKKKACiiigAooooAKKKKACiiigAooooAKKKKACiiigAooooAKKKKACiiigAooooAKKKKACiiigAooooAKKKKACiiigAooooAKKKKACiiigAooooAKKKKACiiigAooooAKKKKACiiigAooooAKKKKACiiigAooooAKKKKACiiigAooooAKKKKACiiigAooooAKKKKACiiigAooooAKKKKACiiigAooooAKKKKACiiigAooooAKKKKACiiigAooooAKKKKACiiigAooooAKKKKACiiigAooooAKKKKACiiigAooooAKKKKACiiigAooooAKKKKACiiigAooooAKKKKACiiigAooooAKKKKACiiigAooooAKKKKACiiigAooooAKKKKACiiigAooooAKKKKACiiigAooooAKKKKACiiigAooooAKKKKACiiigAooooAKKKKACiiigAooooAKKKKACiiigAooooAKKKKACiiigAooooAKKKKACiiigAooooAKKKKACiiigAooooAKKKKACiiigAooooAKKKKACiiigAooooAKKKKACiiigAooooAKKKKACiiigAooooAKKKKACiiigAooooAKKKKACiiigAooooAKKKKACiiigAooooAKKKKACiiigAooooAKKKKACiiigAooooAKKKKACiiigAooooAKKKKACiiigAooooAKKKKACiiigAooooAKKKKACiiigAooooAKKKKACiiigAooooAKKKKACiiigAooooAKKKKACiiigAooooAKKKKACiiigAooooAKKKKACiiigAooooAKKKKACiiigAooooAKKKKACiiigAooooAKKKKACiiigAooooAKKKKACiiigAooooAKKKKACiiigAooooAKKKKACiiigAooooAKKKKACiiigAooooAKKKKACiiigAooooAKKKKACiiigAooooAKKKKACiiigAooooAKKKKACiiigAooooAKKKKACiiigAooooAKKKKACiiigAooooAKKKKACiiigAooooAKKKKACiiigAooooAKKKKACiiigAooooAKKKKACiiigAooooAKKKKACiiigAooooAKKKKACiiigAooooAKKKKACiiigAooooAKKKKACiiigAooooAKKKKACiiigAooooAKKKKACiiigAooooAKKKKACiiigAooooAKKKKACiiigAooooAKKKKACiiigAooooAKKKKACiiigAooooAKKKKACiiigAooooAKKKKACiiigAooooAKKKKACiiigAooooAKKKKACiiigAooooAKKKKACiiigAooooAKKKKACiiigAooooAKKKKACiiigAooooAKKKKACiiigAooooAKKKKACiiigAooooAKKKKACiiigAooooAKKKKACiiigAooooAKKKKACiiigAooooAKKKKACiiigAooooAKKKKACiiigAooooAKKKKACiiigAooooAKKKKACiiigAooooAKKKKACiiigAooooAKKKKACiiigAooooAKKKKACiiigAooooAKKKKACiiigAooooAKKKKACiiigAooooAKKKKACiiigAooooAKKKKACiiigAooooAKKKKACiiigAooooAKKKKACiiigAooooAKKKKACiiigAooooAKKKKACiiigAooooAKKKKACiiigAooooAKKKKACiiigAooooAKKKKACiiigAooooAKKKKACiiigAooooAKKKKACiiigAooooAKKKKACiiigAooooAKKKKACiiigAooooAKKKKACiiigAooooAKKKKACiiigAooooAKKKKACiiigAooooAKKKKACiiigAooooAKKKKACiiigAooooAKKKKACiiigAooooAKKKKACiiigAooooAKKKKACiiigAooooAKKKKACiiigAooooAKKKKACiiigAooooAKKKKACiiigAooooAKKKKACiiigAooooAKKKKACiiigAooooAKKKKACiiigAooooAKKKKACiiigAooooAKKKKACiiigAooooAKKKKACiiigAooooAKKKKACiiigAooooAKKKKACiiigAooooAKKKKACiiigAooooAKKKKACiiigAooooAKKKKACiiigAooooAKKKKACiiigAooooAKKKKACiiigAooooAKKKKACiiigAooooAKKKKACiiigAooooAKKKKACiiigAooooAKKKKACiiigAooooAKKKKACiiigAooooAKKKKACiiigAooooAKKKKACiiigAooooAKKKKACiiigAooooAKKKKACiiigAooooAKKKKACiiigAooooAKKKKACiiigAooooAKKKKACiiigAooooAKKKKACiiigAooooAKKKKACiiigAooooAKKKKACiiigAooooAKKKKACiiigAooooAKKKKACiiigAooooAKKKKACiiigAooooAKKKKACiiigAooooAKKKKACiiigAooooAKKKKACiiigAooooAKKKKACiiigAooooAKKKKACiiigAooooAKKKKACiiigAooooAKKKKACiiigAooooAKKKKACiiigAooooAKKKKACiiigAooooAKKKKACiiigAooooAKKKKACiiigAooooAKKKKACiiigAooooAKKKKACiiigAooooAKKKKACiiigAooooAKKKKACiiigAooooAKKKKACiiigAooooAKKKKACiiigAooooAKKKKACiiigAooooAKKKKACiiigAooooAKKKKACiiigAooooAKKKKACiiigAooooAKKKKACiiigAooooAKKKKACiiigAooooAKKKKACiiigAooooAKKKKACiiigAooooAKKKKACiiigAooooAKKKKACiiigAooooAKKKKACiiigAooooAKKKKACiiigAooooAKKKKACiiigAooooAKKKKACiiigAooooAKKKKACiiigAooooAKKKKACiiigAooooAKKKKACiiigAooooAKKKKACiiigAooooAKKKKACiiigAooooAKKKKACiiigAooooAKKKKACiiigAooooAKKKKACiiigAooooAKKKKACiiigAooooAKKKKACiiigAooooAKKKKACiiigAooooAKKKKACiiigAooooAKKKKACiiigAooooAKKKKACiiigAooooAKKKKACiiigAooooAKKKKACiiigAooooAKKKKACiiigAooooAKKKKACiiigAooooAKKKKACiiigAooooAKKKKACiiigAooooAKKKKACiiigAooooAKKKKACiiigAooooAKKKKACiiigAooooAKKKKACiiigAooooAKKKKACiiigAooooAKKKKACiiigAooooAKKKKACiiigAooooAKKKKACiiigAooooAKKKKACiiigAooooAKKKKACiiigAooooAKKKKACiiigAooooAKKKKACiiigAooooAKKKKACiiigAooooAKKKKACiiigAooooAKKKKACiiigAooooAKKKKACiiigAooooAKKKKACiiigAooooAKKKKACiiigAooooAKKKKACiiigAooooAKKKKACiiigAooooAKKKKACiiigAooooAKKKKACiiigAooooAKKKKACiiigAooooAKKKKACiiigAooooAKKKKACiiigAooooAKKKKACiiigAooooAKKKKACiiigAooooAKKKKACiiigAooooAKKKKACiiigAooooAKKKKACiiigAooooAKKKKACiiigAooooAKKKKACiiigAooooAKKKKACiiigAooooAKKKKACiiigAooooAKKKKACiiigAooooAKKKKACiiigAooooAKKKKACiiigAooooAKKKKACiiigAooooAKKKKACiiigAooooAKKKKACiiigAooooAKKKKACiiigAooooAKKKKACiiigAooooAKKKKACiiigAooooAKKKKACiiigAooooAKKKKACiiigAooooAKKKKACiiigAooooAKKKKACiiigAooooAKKKKACiiigAooooAKKKKACiiigAooooAKKKKACiiigAooooAKKKKACiiigAooooAKKKKACiiigAooooAKKKKACiiigAooooAKKKKACiiigAooooAKKKKACiiigAooooAKKKKACiiigAooooAKKKKACiiigAooooAKKKKACiiigAooooAKKKKACiiigAooooAKKKKACiiigAooooAKKKKACiiigAooooAKKKKACiiigAooooAKKKKACiiigAooooAKKKKACiiigAooooAKKKKACiiigAooooAKKKKACiiigAooooAKKKKACiiigAooooAKKKKACiiigAooooAKKKKACiiigAooooAKKKKACiiigAooooAKKKKACiiigAooooAKKKKACiiigAooooAKKKKACiiigAooooAKKKKACiiigAooooAKKKKACiiigAooooAKKKKACiiigAooooAKKKKACiiigAooooAKKKKAP/9k=;" vertex="1" parent="1">
          <mxGeometry width="1163.31" height="670" as="geometry" />
        </mxCell>
        <mxCell id="wHKPXEgMvavMtHoTAHWf-2" value="Replaceable, removable filter with easy to pull handle." style="rounded=1;whiteSpace=wrap;html=1;" vertex="1" parent="1">
          <mxGeometry x="660" y="60" width="120" height="60" as="geometry" />
        </mxCell>
        <mxCell id="wHKPXEgMvavMtHoTAHWf-3" value="Snug fit cap to block off second port when not in use." style="rounded=1;whiteSpace=wrap;html=1;" vertex="1" parent="1">
          <mxGeometry x="780" y="340" width="120" height="60" as="geometry" />
        </mxCell>
        <mxCell id="wHKPXEgMvavMtHoTAHWf-4" value="Timeless, long lasting design to keep your pool clean and inviting." style="rounded=1;whiteSpace=wrap;html=1;" vertex="1" parent="1">
          <mxGeometry x="380" y="380" width="120" height="60" as="geometry" />
        </mxCell>
        <mxCell id="wHKPXEgMvavMtHoTAHWf-5" value="Connection ports made to attach to a&amp;nbsp;&lt;div&gt;1-1/2&quot; or 1-1/4&quot; vacuum line.&lt;/div&gt;" style="rounded=1;whiteSpace=wrap;html=1;" vertex="1" parent="1">
          <mxGeometry x="700" y="490" width="120" height="60" as="geometry" />
        </mxCell>
        <mxCell id="wHKPXEgMvavMtHoTAHWf-6" value="Easy to access tablet containers to ensure a well-maintained chlorinated pool.&amp;nbsp;" style="rounded=1;whiteSpace=wrap;html=1;" vertex="1" parent="1">
          <mxGeometry x="280" y="200" width="120" height="60" as="geometry" />
        </mxCell>
        <mxCell id="wHKPXEgMvavMtHoTAHWf-7" value="Vortex shaped cutouts to ensure great water flow." style="rounded=1;whiteSpace=wrap;html=1;" vertex="1" parent="1">
          <mxGeometry x="670" y="180" width="120" height="60" as="geometry" />
        </mxCell>
        <mxCell id="wHKPXEgMvavMtHoTAHWf-10" value="" style="endArrow=classic;html=1;rounded=0;" edge="1" parent="1" source="wHKPXEgMvavMtHoTAHWf-2">
          <mxGeometry width="50" height="50" relative="1" as="geometry">
            <mxPoint x="580" y="330" as="sourcePoint" />
            <mxPoint x="600" y="150" as="targetPoint" />
          </mxGeometry>
        </mxCell>
        <mxCell id="wHKPXEgMvavMtHoTAHWf-11" value="" style="endArrow=classic;html=1;rounded=0;exitX=0.833;exitY=1;exitDx=0;exitDy=0;exitPerimeter=0;" edge="1" parent="1" source="wHKPXEgMvavMtHoTAHWf-6">
          <mxGeometry width="50" height="50" relative="1" as="geometry">
            <mxPoint x="400" y="255" as="sourcePoint" />
            <mxPoint x="410" y="300" as="targetPoint" />
          </mxGeometry>
        </mxCell>
        <mxCell id="wHKPXEgMvavMtHoTAHWf-13" value="" style="endArrow=classic;html=1;rounded=0;" edge="1" parent="1">
          <mxGeometry width="50" height="50" relative="1" as="geometry">
            <mxPoint x="790" y="400" as="sourcePoint" />
            <mxPoint x="730" y="410" as="targetPoint" />
          </mxGeometry>
        </mxCell>
        <mxCell id="wHKPXEgMvavMtHoTAHWf-14" value="" style="endArrow=classic;html=1;rounded=0;exitX=0.083;exitY=1;exitDx=0;exitDy=0;exitPerimeter=0;" edge="1" parent="1" source="wHKPXEgMvavMtHoTAHWf-7">
          <mxGeometry width="50" height="50" relative="1" as="geometry">
            <mxPoint x="760" y="320" as="sourcePoint" />
            <mxPoint x="600" y="300" as="targetPoint" />
          </mxGeometry>
        </mxCell>
        <mxCell id="wHKPXEgMvavMtHoTAHWf-15" value="" style="endArrow=classic;html=1;rounded=0;entryX=0.559;entryY=0.642;entryDx=0;entryDy=0;entryPerimeter=0;" edge="1" parent="1" target="wHKPXEgMvavMtHoTAHWf-1">
          <mxGeometry width="50" height="50" relative="1" as="geometry">
            <mxPoint x="710" y="490" as="sourcePoint" />
            <mxPoint x="620" y="450" as="targetPoint" />
          </mxGeometry>
        </mxCell>
        <mxCell id="wHKPXEgMvavMtHoTAHWf-16" value="" style="endArrow=classic;html=1;rounded=0;exitX=0.008;exitY=0.117;exitDx=0;exitDy=0;exitPerimeter=0;entryX=0.507;entryY=0.731;entryDx=0;entryDy=0;entryPerimeter=0;" edge="1" parent="1" source="wHKPXEgMvavMtHoTAHWf-5" target="wHKPXEgMvavMtHoTAHWf-1">
          <mxGeometry width="50" height="50" relative="1" as="geometry">
            <mxPoint x="680" y="500" as="sourcePoint" />
            <mxPoint x="620" y="470" as="targetPoint" />
          </mxGeometry>
        </mxCell>
        <mxCell id="CIlJz3nsd-SIMY3H6pBO-2" value="Small rib to ensure filter stays in its&amp;nbsp;&lt;div&gt;p&lt;span style=&quot;background-color: initial;&quot;&gt;lace.&lt;/span&gt;&lt;/div&gt;" style="rounded=1;whiteSpace=wrap;html=1;" vertex="1" parent="1">
          <mxGeometry x="370" y="100" width="120" height="60" as="geometry" />
        </mxCell>
        <mxCell id="CIlJz3nsd-SIMY3H6pBO-3" value="" style="endArrow=classic;html=1;rounded=0;exitX=0.95;exitY=0.983;exitDx=0;exitDy=0;exitPerimeter=0;" edge="1" parent="1">
          <mxGeometry width="50" height="50" relative="1" as="geometry">
            <mxPoint x="487" y="156.98000000000002" as="sourcePoint" />
            <mxPoint x="523" y="188" as="targetPoint" />
          </mxGeometry>
        </mxCell>
        <mxCell id="dSm-fWr4wZJI_E9sVTRD-2" value="Floatation on top to keep skimmer at surface level." style="rounded=1;whiteSpace=wrap;html=1;" vertex="1" parent="1">
          <mxGeometry x="820" y="210" width="120" height="60" as="geometry" />
        </mxCell>
        <mxCell id="dSm-fWr4wZJI_E9sVTRD-3" value="" style="endArrow=classic;html=1;rounded=0;exitX=0.083;exitY=1;exitDx=0;exitDy=0;exitPerimeter=0;entryX=0.61;entryY=0.418;entryDx=0;entryDy=0;entryPerimeter=0;" edge="1" parent="1" source="dSm-fWr4wZJI_E9sVTRD-2" target="wHKPXEgMvavMtHoTAHWf-1">
          <mxGeometry width="50" height="50" relative="1" as="geometry">
            <mxPoint x="760" y="350" as="sourcePoint" />
            <mxPoint x="810" y="300" as="targetPoint" />
          </mxGeometry>
        </mxCell>
      </root>
    </mxGraphModel>
  </diagram>
</mxfile>
